<svg xmlns="http://www.w3.org/2000/svg" width="767" height="172" viewBox="0 0 767 172"><g fill="none" fill-rule="evenodd"><g fill-rule="nonzero" transform="translate(.287)"><path fill="#FFFFFE" d="M543.268704,82.8722979 L625.732747,82.8722979 L625.732747,37.2726274 L543.272078,37.2726274 L543.272078,82.8722979 L543.268704,82.8722979 Z M518.044647,41.0683824 C518.044647,34.1719173 519.907097,29.5630272 523.628624,27.2619561 C527.343403,24.9541371 534.398446,23.8036016 544.770136,23.8036016 L624.227941,23.8036016 C634.596257,23.8036016 641.634431,24.9507631 645.359331,27.2619561 C649.101102,29.5664012 650.950057,34.1719173 650.950057,41.0717564 L650.950057,79.5893915 C650.950057,86.3880105 649.047118,90.9665346 645.247989,93.3215897 C641.442112,95.6833928 634.430931,96.8710424 624.227941,96.8710424 L544.770136,96.8710424 C534.398446,96.8710424 527.343403,95.6800188 523.628624,93.3215897 C519.907097,90.9665346 518.044647,86.3880105 518.044647,79.5893915 L518.044647,41.0717564 L518.044647,41.0683824 Z M74.4609047,36.931853 L74.4609047,96.8676684 L49.4764016,96.8676684 L49.4764016,36.931853 L0,36.931853 L0,23.8036016 L124.173487,23.8036016 L124.173487,36.928479 L74.4609047,36.931853 Z M230.518734,36.4122563 L173.521676,36.4122563 L173.521676,56.615795 L230.518734,56.615795 C238.110244,56.615795 241.916121,54.6689945 241.916121,50.7450273 L241.916121,42.283024 C241.916121,38.3759269 238.110244,36.4122563 230.518734,36.4122563 Z M148.776727,96.8710424 L148.776727,23.8036016 L241.194084,23.8036016 C257.196987,23.8036016 265.2035,28.5272078 265.2035,37.9676723 L265.2035,55.2425752 C265.2035,64.5716976 257.196987,69.2311978 241.194084,69.2311978 L227.124485,69.2311978 L275.882224,96.8676684 L239.982816,96.8676684 L197.048609,69.2278238 L173.52505,69.2278238 L173.52505,96.8676684 L148.780101,96.8676684 L148.776727,96.8710424 Z M302.833771,96.8710424 L327.818275,96.8710424 L327.818275,23.8036016 L302.833771,23.8036016 L302.833771,96.8710424 Z M462.349955,37.2726274 L384.50155,37.2726274 L384.50155,82.8722979 L462.349955,82.8722979 L462.349955,67.3316333 L421.605477,67.3316333 L421.605477,54.3754561 L486.858723,54.3754561 L486.858723,79.5893915 C486.858723,86.3880105 484.989525,90.9665346 481.281494,93.3215897 C477.553219,95.6833928 470.515046,96.8710424 460.177096,96.8710424 L385.962494,96.8710424 C375.600926,96.8710424 368.576249,95.6800188 364.847974,93.3215897 C361.143317,90.9665346 359.28424,86.3880105 359.28424,79.5893915 L359.28424,41.0717564 C359.28424,34.2765114 361.173683,29.7013614 364.97956,27.3463062 C368.778689,24.9845031 375.769626,23.8036016 385.962494,23.8036016 L460.177096,23.8036016 C470.201263,23.8036016 477.148338,24.923771 481.035192,27.170858 C484.908549,29.417945 486.855349,33.7704108 486.855349,40.2113853 L486.855349,42.1143238 L462.349955,45.0497077 L462.349955,37.2726274 L462.349955,37.2726274 Z"/><path fill="#93C664" d="M765.713445,27.8321629 C765.713445,27.8321629 730.556318,51.3894621 686.15442,51.3894621 L686.15442,23.5606732 C730.556318,23.5606732 765.713445,0 765.713445,0 L765.713445,27.8355369 L765.713445,27.8321629 Z M765.713445,64.8382439 C765.713445,64.8382439 730.556318,88.3989172 686.15442,88.3989172 L686.15442,60.5667543 C730.556318,60.5667543 765.713445,37.0094551 765.713445,37.0094551 L765.713445,64.8382439 L765.713445,64.8382439 Z M765.713445,101.854447 C765.713445,101.854447 730.556318,125.41512 686.15442,125.41512 L686.15442,97.5795833 C730.556318,97.5795833 765.713445,74.0222841 765.713445,74.0222841 L765.713445,101.854447 Z M765.713445,138.863902 C765.713445,138.863902 730.556318,162.424575 686.15442,162.424575 L686.15442,134.589038 C730.556318,134.589038 765.713445,111.028365 765.713445,111.028365 L765.713445,138.863902 Z"/></g><g fill="#FFF" fill-rule="nonzero" transform="translate(154.272 125.794)"><path d="M15.8808594,0.0458984375 C19.0478516,0.0458984375 21.7864583,0.657877604 24.0966797,1.88183594 C27.4472656,3.64127604 29.4973958,6.72412109 30.2470703,11.1303711 L25.7260742,11.1303711 C25.175293,8.66715495 24.0354818,6.87329102 22.3066406,5.7487793 C20.5777995,4.62426758 18.3976237,4.06201172 15.7661133,4.06201172 C12.6450195,4.06201172 10.017334,5.23242188 7.88305664,7.57324219 C5.7487793,9.9140625 4.68164062,13.4023438 4.68164062,18.0380859 C4.68164062,22.0465495 5.56136068,25.3091634 7.32080078,27.8259277 C9.08024089,30.3426921 11.9488932,31.6010742 15.9267578,31.6010742 C18.9713542,31.6010742 21.4919434,30.7175293 23.4885254,28.9504395 C25.4851074,27.1833496 26.5063477,24.3261719 26.5522461,20.3789062 L15.9956055,20.3789062 L15.9956055,16.5922852 L30.7978516,16.5922852 L30.7978516,34.6303711 L27.8603516,34.6303711 L26.7587891,30.2929688 C25.2135417,31.9912109 23.8442383,33.1692708 22.6508789,33.8271484 C20.6466471,34.9593099 18.0992839,35.5253906 15.0087891,35.5253906 C11.015625,35.5253906 7.58089193,34.2325846 4.70458984,31.6469727 C1.56819661,28.4034831 0,23.9513346 0,18.2905273 C0,12.6450195 1.52994792,8.1546224 4.58984375,4.81933594 C7.49674479,1.63704427 11.2604167,0.0458984375 15.8808594,0.0458984375 Z"/><polygon points="37.43 .918 41.561 .918 41.561 34.63 37.43 34.63"/><path d="M57.5107422 31.9682617C60.249349 31.9682617 62.12736 30.931722 63.1447754 28.8586426 64.1621908 26.7855632 64.6708984 24.4791667 64.6708984 21.9394531 64.6708984 19.6445312 64.3037109 17.7779948 63.5693359 16.3398438 62.4065755 14.0755208 60.4023438 12.9433594 57.5566406 12.9433594 55.0322266 12.9433594 53.1962891 13.9072266 52.0488281 15.8349609 50.9013672 17.7626953 50.3276367 20.0882161 50.3276367 22.8115234 50.3276367 25.4277344 50.9013672 27.6079102 52.0488281 29.3520508 53.1962891 31.0961914 55.0169271 31.9682617 57.5107422 31.9682617ZM57.6713867 9.34033203C60.8383789 9.34033203 63.5157878 10.3959961 65.7036133 12.5073242 67.8914388 14.6186523 68.9853516 17.7244466 68.9853516 21.824707 68.9853516 25.7872721 68.0214844 29.0613607 66.09375 31.6469727 64.1660156 34.2325846 61.1749674 35.5253906 57.1206055 35.5253906 53.7394206 35.5253906 51.054362 34.3817546 49.0654297 32.0944824 47.0764974 29.8072103 46.0820312 26.7358398 46.0820312 22.8803711 46.0820312 18.7495117 47.1300456 15.4601237 49.2260742 13.012207 51.3221029 10.5642904 54.137207 9.34033203 57.6713867 9.34033203ZM73.5751953.803222656 77.5913086.803222656 77.5913086 13.0351562C78.4939779 11.8570964 79.5725911 10.958252 80.8271484 10.338623 82.0817057 9.71899414 83.4433594 9.40917969 84.9121094 9.40917969 87.9720052 9.40917969 90.4543457 10.4610189 92.3591309 12.5646973 94.263916 14.6683757 95.2163086 17.7703451 95.2163086 21.8706055 95.2163086 25.7566732 94.2753906 28.9848633 92.3935547 31.5551758 90.5117188 34.1254883 87.9031576 35.4106445 84.5678711 35.4106445 82.7013346 35.4106445 81.1254883 34.9593099 79.840332 34.0566406 79.0753581 33.5211589 78.2568359 32.664388 77.3847656 31.4863281L77.3847656 34.6303711 73.5751953 34.6303711 73.5751953.803222656ZM84.3154297 31.7617188C86.5491536 31.7617188 88.2206217 30.874349 89.329834 29.0996094 90.4390462 27.3248698 90.9936523 24.9840495 90.9936523 22.0771484 90.9936523 19.4915365 90.4390462 17.3496094 89.329834 15.6513672 88.2206217 13.953125 86.5874023 13.1040039 84.4301758 13.1040039 82.5483398 13.1040039 80.899821 13.8001302 79.4846191 15.1923828 78.0694173 16.5846354 77.3618164 18.8795573 77.3618164 22.0771484 77.3618164 24.3873698 77.6525065 26.261556 78.2338867 27.699707 79.3201497 30.4077148 81.3473307 31.7617188 84.3154297 31.7617188ZM103.202637 28.0898438C103.202637 29.2832031 103.638672 30.2241211 104.510742 30.9125977 105.382812 31.6010742 106.415527 31.9453125 107.608887 31.9453125 109.062337 31.9453125 110.469889 31.608724 111.831543 30.9355469 114.126465 29.8186849 115.273926 27.9903971 115.273926 25.4506836L115.273926 22.1230469C114.769043 22.4443359 114.118815 22.7120768 113.323242 22.9262695 112.527669 23.1404622 111.747396 23.293457 110.982422 23.3852539L108.480957 23.706543C106.981608 23.9054362 105.857096 24.2190755 105.107422 24.6474609 103.837565 25.3665365 103.202637 26.5139974 103.202637 28.0898438ZM113.208496 19.7363281C114.157064 19.6139323 114.791992 19.2161458 115.113281 18.5429688 115.296875 18.1757812 115.388672 17.6479492 115.388672 16.9594727 115.388672 15.5519206 114.887614 14.5306803 113.885498 13.895752 112.883382 13.2608236 111.449056 12.9433594 109.58252 12.9433594 107.425293 12.9433594 105.895345 13.5247396 104.992676 14.6875 104.487793 15.3300781 104.158854 16.2862956 104.005859 17.5561523L100.150391 17.5561523C100.226888 14.5268555 101.20988 12.4193522 103.099365 11.2336426 104.988851 10.0479329 107.180501 9.45507812 109.674316 9.45507812 112.565918 9.45507812 114.914388 10.0058594 116.719727 11.1074219 118.509766 12.2089844 119.404785 13.922526 119.404785 16.2480469L119.404785 30.4077148C119.404785 30.8361003 119.492757 31.1803385 119.668701 31.4404297 119.844645 31.7005208 120.215658 31.8305664 120.781738 31.8305664 120.965332 31.8305664 121.171875 31.8190918 121.401367 31.7961426 121.630859 31.7731934 121.875651 31.7387695 122.135742 31.6928711L122.135742 34.7451172C121.493164 34.9287109 121.003581 35.043457 120.666992 35.0893555 120.330404 35.1352539 119.871419 35.1582031 119.290039 35.1582031 117.867188 35.1582031 116.834473 34.6533203 116.191895 33.6435547 115.855306 33.1080729 115.618164 32.3507487 115.480469 31.371582 114.638997 32.4731445 113.430339 33.429362 111.854492 34.2402344 110.278646 35.0511068 108.542155 35.456543 106.64502 35.456543 104.365397 35.456543 102.502686 34.7642415 101.056885 33.3796387 99.611084 31.9950358 98.8881836 30.2623698 98.8881836 28.1816406 98.8881836 25.9020182 99.5996094 24.1349284 101.022461 22.8803711 102.445312 21.6258138 104.311849 20.8531901 106.62207 20.5625L113.208496 19.7363281Z"/><polygon points="126.29 .918 130.42 .918 130.42 34.63 126.29 34.63"/><path d="M181.069336 34.5385742 178.774414 37.3154297 173.564941 33.3452148C172.310384 34.0336914 170.952555 34.5844727 169.491455 34.9975586 168.030355 35.4106445 166.435384 35.6171875 164.706543 35.6171875 159.474121 35.6171875 155.373861 33.9036458 152.405762 30.4765625 149.789551 27.141276 148.481445 22.9645182 148.481445 17.9462891 148.481445 13.3870443 149.613607 9.48567708 151.87793 6.2421875 154.784831 2.08072917 159.083984 0 164.775391 0 170.726888 0 175.133138 1.9124349 177.994141 5.73730469 180.227865 8.72070312 181.344727 12.5379232 181.344727 17.1889648 181.344727 19.3614909 181.076986 21.4498698 180.541504 23.4541016 179.730632 26.5139974 178.361328 29.0078125 176.433594 30.9355469L181.069336 34.5385742ZM165.257324 31.5322266C166.205892 31.5322266 167.093262 31.4672038 167.919434 31.3371582 168.745605 31.2071126 169.464681 30.9508464 170.07666 30.5683594L166.381836 27.6767578 168.676758 24.8540039 173.083008 28.2734375C174.47526 26.6822917 175.420003 24.8999023 175.917236 22.9262695 176.414469 20.9526367 176.663086 19.063151 176.663086 17.2578125 176.663086 13.2952474 175.626546 10.105306 173.553467 7.68798828 171.480387 5.27067057 168.646159 4.06201172 165.050781 4.06201172 161.409505 4.06201172 158.525553 5.22094727 156.398926 7.53881836 154.272298 9.85668945 153.208984 13.425293 153.208984 18.2446289 153.208984 22.2989909 154.230225 25.527181 156.272705 27.9291992 158.315186 30.3312174 161.310059 31.5322266 165.257324 31.5322266ZM190.36377 10.0517578 190.36377 26.3686523C190.36377 27.6232096 190.562663 28.6482747 190.960449 29.4438477 191.694824 30.9125977 193.064128 31.6469727 195.068359 31.6469727 197.944661 31.6469727 199.902995 30.3618164 200.943359 27.7915039 201.50944 26.4145508 201.79248 24.5250651 201.79248 22.1230469L201.79248 10.0517578 205.92334 10.0517578 205.92334 34.6303711 202.021973 34.6303711 202.067871 31.0043945C201.532389 31.9376628 200.866862 32.7255859 200.071289 33.3681641 198.495443 34.6533203 196.583008 35.2958984 194.333984 35.2958984 190.830404 35.2958984 188.443685 34.1254883 187.173828 31.784668 186.485352 30.5301107 186.141113 28.8548177 186.141113 26.7587891L186.141113 10.0517578 190.36377 10.0517578ZM215.539062 28.0898438C215.539062 29.2832031 215.975098 30.2241211 216.847168 30.9125977 217.719238 31.6010742 218.751953 31.9453125 219.945312 31.9453125 221.398763 31.9453125 222.806315 31.608724 224.167969 30.9355469 226.462891 29.8186849 227.610352 27.9903971 227.610352 25.4506836L227.610352 22.1230469C227.105469 22.4443359 226.455241 22.7120768 225.659668 22.9262695 224.864095 23.1404622 224.083822 23.293457 223.318848 23.3852539L220.817383 23.706543C219.318034 23.9054362 218.193522 24.2190755 217.443848 24.6474609 216.173991 25.3665365 215.539062 26.5139974 215.539062 28.0898438ZM225.544922 19.7363281C226.49349 19.6139323 227.128418 19.2161458 227.449707 18.5429688 227.633301 18.1757812 227.725098 17.6479492 227.725098 16.9594727 227.725098 15.5519206 227.22404 14.5306803 226.221924 13.895752 225.219808 13.2608236 223.785482 12.9433594 221.918945 12.9433594 219.761719 12.9433594 218.231771 13.5247396 217.329102 14.6875 216.824219 15.3300781 216.49528 16.2862956 216.342285 17.5561523L212.486816 17.5561523C212.563314 14.5268555 213.546305 12.4193522 215.435791 11.2336426 217.325277 10.0479329 219.516927 9.45507812 222.010742 9.45507812 224.902344 9.45507812 227.250814 10.0058594 229.056152 11.1074219 230.846191 12.2089844 231.741211 13.922526 231.741211 16.2480469L231.741211 30.4077148C231.741211 30.8361003 231.829183 31.1803385 232.005127 31.4404297 232.181071 31.7005208 232.552083 31.8305664 233.118164 31.8305664 233.301758 31.8305664 233.508301 31.8190918 233.737793 31.7961426 233.967285 31.7731934 234.212077 31.7387695 234.472168 31.6928711L234.472168 34.7451172C233.82959 34.9287109 233.340007 35.043457 233.003418 35.0893555 232.666829 35.1352539 232.207845 35.1582031 231.626465 35.1582031 230.203613 35.1582031 229.170898 34.6533203 228.52832 33.6435547 228.191732 33.1080729 227.95459 32.3507487 227.816895 31.371582 226.975423 32.4731445 225.766764 33.429362 224.190918 34.2402344 222.615072 35.0511068 220.878581 35.456543 218.981445 35.456543 216.701823 35.456543 214.839111 34.7642415 213.393311 33.3796387 211.94751 31.9950358 211.224609 30.2623698 211.224609 28.1816406 211.224609 25.9020182 211.936035 24.1349284 213.358887 22.8803711 214.781738 21.6258138 216.648275 20.8531901 218.958496 20.5625L225.544922 19.7363281Z"/><polygon points="238.626 .918 242.757 .918 242.757 34.63 238.626 34.63"/><path d="M248.953125 10.1665039 253.152832 10.1665039 253.152832 34.6303711 248.953125 34.6303711 248.953125 10.1665039ZM248.953125.91796875 253.152832.91796875 253.152832 5.59960938 248.953125 5.59960938 248.953125.91796875ZM260.221191 3.18994141 264.397949 3.18994141 264.397949 10.0517578 268.322266 10.0517578 268.322266 13.425293 264.397949 13.425293 264.397949 29.4667969C264.397949 30.3235677 264.688639 30.8972982 265.27002 31.1879883 265.591309 31.3562826 266.12679 31.4404297 266.876465 31.4404297 267.075358 31.4404297 267.289551 31.4366048 267.519043 31.4289551 267.748535 31.4213053 268.016276 31.402181 268.322266 31.371582L268.322266 34.6303711C267.847982 34.7680664 267.354574 34.867513 266.842041 34.9287109 266.329508 34.9899089 265.774902 35.0205078 265.178223 35.0205078 263.250488 35.0205078 261.942383 34.5270996 261.253906 33.5402832 260.56543 32.5534668 260.221191 31.2721354 260.221191 29.6962891L260.221191 13.425293 256.893555 13.425293 256.893555 10.0517578 260.221191 10.0517578 260.221191 3.18994141ZM287.806152 10.0517578 292.373047 10.0517578C291.791667 11.6276042 290.498861 15.2229818 288.494629 20.8378906 286.99528 25.0605469 285.740723 28.5029297 284.730957 31.1650391 282.344238 37.4378255 280.661296 41.2626953 279.682129 42.6396484 278.702962 44.0166016 277.02002 44.7050781 274.633301 44.7050781 274.051921 44.7050781 273.604411 44.6821289 273.290771 44.6362305 272.977132 44.590332 272.59082 44.5061849 272.131836 44.3837891L272.131836 40.6201172C272.850911 40.8190104 273.371094 40.9414062 273.692383 40.9873047 274.013672 41.0332031 274.296712 41.0561523 274.541504 41.0561523 275.306478 41.0561523 275.868734 40.9299316 276.228271 40.6774902 276.587809 40.4250488 276.889974 40.1152344 277.134766 39.7480469 277.211263 39.625651 277.486654 38.9983724 277.960938 37.8662109 278.435221 36.7340495 278.77946 35.8925781 278.993652 35.3417969L269.905762 10.0517578 274.587402 10.0517578 281.173828 30.0634766 287.806152 10.0517578ZM312.54541 23.7524414C312.652507 25.6648763 313.103841 27.2177734 313.899414 28.4111328 315.414062 30.6448568 318.083822 31.7617188 321.908691 31.7617188 323.622233 31.7617188 325.18278 31.5169271 326.590332 31.0273438 329.313639 30.078776 330.675293 28.3805339 330.675293 25.9326172 330.675293 24.0966797 330.101562 22.7885742 328.954102 22.0083008 327.791341 21.2433268 325.970703 20.5777995 323.492188 20.0117188L318.925293 18.9790039C315.941895 18.3058268 313.830566 17.5638021 312.591309 16.7529297 310.449382 15.3453776 309.378418 13.2416992 309.378418 10.4418945 309.378418 7.41259766 310.426432 4.92643229 312.522461 2.98339844 314.61849 1.04036458 317.586589.0688476562 321.426758.0688476562 324.960938.0688476562 327.96346.92179362 330.434326 2.62768555 332.905192 4.33357747 334.140625 7.06070964 334.140625 10.809082L329.849121 10.809082C329.619629 9.00374349 329.130046 7.61914062 328.380371 6.65527344 326.988118 4.89583333 324.624349 4.01611328 321.289062 4.01611328 318.596354 4.01611328 316.66097 4.58219401 315.48291 5.71435547 314.30485 6.84651693 313.71582 8.16227214 313.71582 9.66162109 313.71582 11.3139648 314.404297 12.5226237 315.78125 13.2875977 316.683919 13.777181 318.7264 14.3891602 321.908691 15.1235352L326.63623 16.2021484C328.915853 16.7223307 330.675293 17.4337565 331.914551 18.3364258 334.056478 19.9122721 335.127441 22.1995443 335.127441 25.1982422 335.127441 28.9313151 333.769613 31.6010742 331.053955 33.2075195 328.338298 34.8139648 325.18278 35.6171875 321.587402 35.6171875 317.395345 35.6171875 314.113607 34.546224 311.742188 32.4042969 309.370768 30.2776693 308.208008 27.3937174 308.253906 23.7524414L312.54541 23.7524414ZM350.113281 31.9682617C352.851888 31.9682617 354.729899 30.931722 355.747314 28.8586426 356.76473 26.7855632 357.273438 24.4791667 357.273438 21.9394531 357.273438 19.6445312 356.90625 17.7779948 356.171875 16.3398438 355.009115 14.0755208 353.004883 12.9433594 350.15918 12.9433594 347.634766 12.9433594 345.798828 13.9072266 344.651367 15.8349609 343.503906 17.7626953 342.930176 20.0882161 342.930176 22.8115234 342.930176 25.4277344 343.503906 27.6079102 344.651367 29.3520508 345.798828 31.0961914 347.619466 31.9682617 350.113281 31.9682617ZM350.273926 9.34033203C353.440918 9.34033203 356.118327 10.3959961 358.306152 12.5073242 360.493978 14.6186523 361.587891 17.7244466 361.587891 21.824707 361.587891 25.7872721 360.624023 29.0613607 358.696289 31.6469727 356.768555 34.2325846 353.777507 35.5253906 349.723145 35.5253906 346.34196 35.5253906 343.656901 34.3817546 341.667969 32.0944824 339.679036 29.8072103 338.68457 26.7358398 338.68457 22.8803711 338.68457 18.7495117 339.732585 15.4601237 341.828613 13.012207 343.924642 10.5642904 346.739746 9.34033203 350.273926 9.34033203Z"/><polygon points="366.614 .918 370.745 .918 370.745 34.63 366.614 34.63"/><path d="M381.071777 10.0517578 381.071777 26.3686523C381.071777 27.6232096 381.270671 28.6482747 381.668457 29.4438477 382.402832 30.9125977 383.772135 31.6469727 385.776367 31.6469727 388.652669 31.6469727 390.611003 30.3618164 391.651367 27.7915039 392.217448 26.4145508 392.500488 24.5250651 392.500488 22.1230469L392.500488 10.0517578 396.631348 10.0517578 396.631348 34.6303711 392.72998 34.6303711 392.775879 31.0043945C392.240397 31.9376628 391.57487 32.7255859 390.779297 33.3681641 389.203451 34.6533203 387.291016 35.2958984 385.041992 35.2958984 381.538411 35.2958984 379.151693 34.1254883 377.881836 31.784668 377.193359 30.5301107 376.849121 28.8548177 376.849121 26.7587891L376.849121 10.0517578 381.071777 10.0517578ZM403.90625 3.18994141 408.083008 3.18994141 408.083008 10.0517578 412.007324 10.0517578 412.007324 13.425293 408.083008 13.425293 408.083008 29.4667969C408.083008 30.3235677 408.373698 30.8972982 408.955078 31.1879883 409.276367 31.3562826 409.811849 31.4404297 410.561523 31.4404297 410.760417 31.4404297 410.974609 31.4366048 411.204102 31.4289551 411.433594 31.4213053 411.701335 31.402181 412.007324 31.371582L412.007324 34.6303711C411.53304 34.7680664 411.039632 34.867513 410.5271 34.9287109 410.014567 34.9899089 409.459961 35.0205078 408.863281 35.0205078 406.935547 35.0205078 405.627441 34.5270996 404.938965 33.5402832 404.250488 32.5534668 403.90625 31.2721354 403.90625 29.6962891L403.90625 13.425293 400.578613 13.425293 400.578613 10.0517578 403.90625 10.0517578 403.90625 3.18994141ZM416.138184 10.1665039 420.337891 10.1665039 420.337891 34.6303711 416.138184 34.6303711 416.138184 10.1665039ZM416.138184.91796875 420.337891.91796875 420.337891 5.59960938 416.138184 5.59960938 416.138184.91796875ZM436.333496 31.9682617C439.072103 31.9682617 440.950114 30.931722 441.967529 28.8586426 442.984945 26.7855632 443.493652 24.4791667 443.493652 21.9394531 443.493652 19.6445312 443.126465 17.7779948 442.39209 16.3398438 441.229329 14.0755208 439.225098 12.9433594 436.379395 12.9433594 433.85498 12.9433594 432.019043 13.9072266 430.871582 15.8349609 429.724121 17.7626953 429.150391 20.0882161 429.150391 22.8115234 429.150391 25.4277344 429.724121 27.6079102 430.871582 29.3520508 432.019043 31.0961914 433.839681 31.9682617 436.333496 31.9682617ZM436.494141 9.34033203C439.661133 9.34033203 442.338542 10.3959961 444.526367 12.5073242 446.714193 14.6186523 447.808105 17.7244466 447.808105 21.824707 447.808105 25.7872721 446.844238 29.0613607 444.916504 31.6469727 442.98877 34.2325846 439.997721 35.5253906 435.943359 35.5253906 432.562174 35.5253906 429.877116 34.3817546 427.888184 32.0944824 425.899251 29.8072103 424.904785 26.7358398 424.904785 22.8803711 424.904785 18.7495117 425.952799 15.4601237 428.048828 13.012207 430.144857 10.5642904 432.959961 9.34033203 436.494141 9.34033203ZM452.719238 10.0517578 456.643555 10.0517578 456.643555 13.5400391C457.806315 12.101888 459.037923 11.0691732 460.338379 10.4418945 461.638835 9.81461589 463.084635 9.50097656 464.675781 9.50097656 468.164062 9.50097656 470.520182 10.7172852 471.744141 13.1499023 472.417318 14.480957 472.753906 16.3857422 472.753906 18.8642578L472.753906 34.6303711 468.554199 34.6303711 468.554199 19.1396484C468.554199 17.6402995 468.332357 16.4316406 467.888672 15.5136719 467.154297 13.983724 465.823242 13.21875 463.895508 13.21875 462.916341 13.21875 462.113118 13.3181966 461.48584 13.5170898 460.353678 13.8536784 459.359212 14.5268555 458.502441 15.5366211 457.813965 16.3474935 457.366455 17.18514 457.159912 18.0495605 456.953369 18.9139811 456.850098 20.1494141 456.850098 21.7558594L456.850098 34.6303711 452.719238 34.6303711 452.719238 10.0517578ZM481.313965 26.9194336C481.436361 28.2963867 481.780599 29.3520508 482.34668 30.0864258 483.387044 31.4174805 485.192383 32.0830078 487.762695 32.0830078 489.292643 32.0830078 490.638997 31.7502441 491.801758 31.0847168 492.964518 30.4191895 493.545898 29.3902995 493.545898 27.9980469 493.545898 26.9423828 493.079264 26.1391602 492.145996 25.5883789 491.549316 25.2517904 490.371257 24.8616536 488.611816 24.4179688L485.330078 23.5917969C483.234049 23.0716146 481.688802 22.4902344 480.694336 21.8476562 478.919596 20.7307943 478.032227 19.1855469 478.032227 17.2119141 478.032227 14.8863932 478.869873 13.0045573 480.545166 11.5664062 482.220459 10.1282552 484.473307 9.40917969 487.303711 9.40917969 491.006185 9.40917969 493.675944 10.4954427 495.312988 12.6679688 496.338053 14.0449219 496.835286 15.5289714 496.804688 17.1201172L492.90332 17.1201172C492.826823 16.186849 492.497884 15.3377279 491.916504 14.5727539 490.967936 13.4864909 489.323242 12.9433594 486.982422 12.9433594 485.421875 12.9433594 484.23999 13.2416992 483.436768 13.8383789 482.633545 14.4350586 482.231934 15.2229818 482.231934 16.2021484 482.231934 17.273112 482.759766 18.1298828 483.81543 18.7724609 484.427409 19.1549479 485.330078 19.4915365 486.523438 19.7822266L489.254395 20.4477539C492.222493 21.1668294 494.211426 21.8629557 495.221191 22.5361328 496.827637 23.5917969 497.630859 25.2517904 497.630859 27.5161133 497.630859 29.7039388 496.800863 31.5934245 495.140869 33.1845703 493.480876 34.7757161 490.952637 35.5712891 487.556152 35.5712891 483.899577 35.5712891 481.31014 34.7412923 479.787842 33.0812988 478.265544 31.4213053 477.450846 29.3673503 477.34375 26.9194336L481.313965 26.9194336Z"/></g></g></svg>